<svg xmlns="http://www.w3.org/2000/svg" width="24" height="15.046" viewBox="0 0 24 15.046">
  <path id="Icon_awesome-behance" data-name="Icon awesome-behance" d="M9.667,12.043A3.162,3.162,0,0,0,11.683,8.96c0-2.942-2.192-3.658-4.721-3.658H0V20.068H7.158c2.683,0,5.2-1.287,5.2-4.288a3.558,3.558,0,0,0-2.7-3.738ZM3.246,7.822H6.292c1.171,0,2.225.329,2.225,1.688,0,1.254-.821,1.758-1.979,1.758H3.246V7.822ZM6.717,17.56H3.246V13.493H6.783c1.429,0,2.333.6,2.333,2.108,0,1.492-1.079,1.958-2.4,1.958ZM21.654,7.531H15.667V6.077h5.987V7.531ZM24,14.877c0-3.162-1.85-5.8-5.2-5.8a5.373,5.373,0,0,0-5.471,5.658c0,3.329,2.1,5.613,5.471,5.613a4.767,4.767,0,0,0,5-3.6H21.208a2.433,2.433,0,0,1-2.321,1.4,2.418,2.418,0,0,1-2.625-2.721h7.712C23.988,15.252,24,15.064,24,14.877Zm-7.733-1.3A2.3,2.3,0,0,1,18.7,11.293a2.189,2.189,0,0,1,2.342,2.283Z" transform="translate(0 -5.302)" fill="#000719"/>
</svg>
