<svg xmlns="http://www.w3.org/2000/svg" width="21" height="21" viewBox="0 0 21 21">
  <path id="Icon_awesome-dribbble" data-name="Icon awesome-dribbble" d="M11.063.562a10.5,10.5,0,1,0,10.5,10.5A10.512,10.512,0,0,0,11.063.562ZM18,5.4a8.926,8.926,0,0,1,2.025,5.587,20.959,20.959,0,0,0-6.245-.289c-.244-.594-.473-1.117-.788-1.762A11.947,11.947,0,0,0,18,5.4Zm-1-1.037a10.126,10.126,0,0,1-4.7,3.24,47.872,47.872,0,0,0-3.346-5.25,8.945,8.945,0,0,1,8.047,2.011ZM7.25,2.96a57.226,57.226,0,0,1,3.325,5.187A33.453,33.453,0,0,1,2.283,9.239,9,9,0,0,1,7.25,2.96ZM2.094,11.076c0-.092,0-.183,0-.274a33.083,33.083,0,0,0,9.217-1.276c.257.5.5,1.013.727,1.522A13.892,13.892,0,0,0,4.4,17.073,8.933,8.933,0,0,1,2.094,11.076Zm3.464,7.075a12.614,12.614,0,0,1,7.1-5.621,37.28,37.28,0,0,1,1.913,6.8,8.95,8.95,0,0,1-9.008-1.18Zm10.516.359a38.709,38.709,0,0,0-1.742-6.395,13.164,13.164,0,0,1,5.586.383,8.984,8.984,0,0,1-3.844,6.011Z" transform="translate(-0.563 -0.563)" fill="#000719"/>
</svg>
